<mxfile host="app.diagrams.net" agent="Mozilla/5.0 (Windows NT 10.0; Win64; x64) AppleWebKit/537.36 (KHTML, like Gecko) Chrome/127.0.0.0 Safari/537.36" version="25.0.3">
  <diagram name="第 1 页" id="Q9QuUrHjSZv0sQ6V6B3A">
    <mxGraphModel dx="1687" dy="2087" grid="1" gridSize="10" guides="1" tooltips="1" connect="1" arrows="1" fold="1" page="1" pageScale="1" pageWidth="827" pageHeight="1169" math="0" shadow="0">
      <root>
        <mxCell id="0" />
        <mxCell id="1" parent="0" />
        <mxCell id="FOZXGGqBNjXn9Vt_34OC-48" value="" style="group" vertex="1" connectable="0" parent="1">
          <mxGeometry x="300" y="-210" width="290" height="270" as="geometry" />
        </mxCell>
        <mxCell id="FOZXGGqBNjXn9Vt_34OC-37" style="edgeStyle=orthogonalEdgeStyle;rounded=0;orthogonalLoop=1;jettySize=auto;html=1;exitX=1;exitY=0.25;exitDx=0;exitDy=0;entryX=0;entryY=0.25;entryDx=0;entryDy=0;" edge="1" parent="FOZXGGqBNjXn9Vt_34OC-48" source="FOZXGGqBNjXn9Vt_34OC-34" target="FOZXGGqBNjXn9Vt_34OC-36">
          <mxGeometry relative="1" as="geometry" />
        </mxCell>
        <mxCell id="FOZXGGqBNjXn9Vt_34OC-39" style="edgeStyle=orthogonalEdgeStyle;rounded=0;orthogonalLoop=1;jettySize=auto;html=1;exitX=1;exitY=0.75;exitDx=0;exitDy=0;entryX=0;entryY=0.75;entryDx=0;entryDy=0;" edge="1" parent="FOZXGGqBNjXn9Vt_34OC-48" source="FOZXGGqBNjXn9Vt_34OC-34" target="FOZXGGqBNjXn9Vt_34OC-36">
          <mxGeometry relative="1" as="geometry" />
        </mxCell>
        <mxCell id="FOZXGGqBNjXn9Vt_34OC-34" value="客户端" style="rounded=1;whiteSpace=wrap;html=1;" vertex="1" parent="FOZXGGqBNjXn9Vt_34OC-48">
          <mxGeometry width="70" height="190" as="geometry" />
        </mxCell>
        <mxCell id="FOZXGGqBNjXn9Vt_34OC-38" style="edgeStyle=orthogonalEdgeStyle;rounded=0;orthogonalLoop=1;jettySize=auto;html=1;exitX=0;exitY=0.5;exitDx=0;exitDy=0;entryX=1;entryY=0.5;entryDx=0;entryDy=0;" edge="1" parent="FOZXGGqBNjXn9Vt_34OC-48" source="FOZXGGqBNjXn9Vt_34OC-36" target="FOZXGGqBNjXn9Vt_34OC-34">
          <mxGeometry relative="1" as="geometry" />
        </mxCell>
        <mxCell id="FOZXGGqBNjXn9Vt_34OC-36" value="服务端" style="rounded=1;whiteSpace=wrap;html=1;" vertex="1" parent="FOZXGGqBNjXn9Vt_34OC-48">
          <mxGeometry x="220" width="70" height="190" as="geometry" />
        </mxCell>
        <mxCell id="FOZXGGqBNjXn9Vt_34OC-40" value="SYN 起始序列号" style="text;html=1;align=center;verticalAlign=middle;whiteSpace=wrap;rounded=0;fontSize=10;" vertex="1" parent="FOZXGGqBNjXn9Vt_34OC-48">
          <mxGeometry x="97" y="27" width="90" height="30" as="geometry" />
        </mxCell>
        <mxCell id="FOZXGGqBNjXn9Vt_34OC-41" value="&lt;font style=&quot;font-size: 10px;&quot;&gt;SYN + ACK 服务端起始序列&lt;/font&gt;" style="text;html=1;align=center;verticalAlign=middle;whiteSpace=wrap;rounded=0;" vertex="1" parent="FOZXGGqBNjXn9Vt_34OC-48">
          <mxGeometry x="81" y="73" width="130" height="30" as="geometry" />
        </mxCell>
        <mxCell id="FOZXGGqBNjXn9Vt_34OC-42" value="SYN 标志位设置为1" style="text;html=1;align=center;verticalAlign=middle;whiteSpace=wrap;rounded=0;fontSize=10;" vertex="1" parent="FOZXGGqBNjXn9Vt_34OC-48">
          <mxGeometry x="92" y="39" width="100" height="30" as="geometry" />
        </mxCell>
        <mxCell id="FOZXGGqBNjXn9Vt_34OC-44" value="SYN/ACK 标志位设置为1&lt;div&gt;序列号 +1&lt;/div&gt;" style="text;html=1;align=center;verticalAlign=middle;whiteSpace=wrap;rounded=0;fontSize=10;" vertex="1" parent="FOZXGGqBNjXn9Vt_34OC-48">
          <mxGeometry x="87" y="97" width="118" height="30" as="geometry" />
        </mxCell>
        <mxCell id="FOZXGGqBNjXn9Vt_34OC-45" value="ACK 标志位设置为1&lt;div&gt;序列号 +1&lt;/div&gt;" style="text;html=1;align=center;verticalAlign=middle;whiteSpace=wrap;rounded=0;fontSize=10;" vertex="1" parent="FOZXGGqBNjXn9Vt_34OC-48">
          <mxGeometry x="83" y="142" width="118" height="30" as="geometry" />
        </mxCell>
        <mxCell id="FOZXGGqBNjXn9Vt_34OC-47" value="&lt;div&gt;&lt;b&gt;三次握手作用：&lt;/b&gt;&lt;/div&gt;&lt;span style=&quot;forced-color-adjust: none; color: rgb(0, 0, 0); font-family: Helvetica; font-style: normal; font-variant-ligatures: normal; font-variant-caps: normal; letter-spacing: normal; orphans: 2; text-align: left; text-indent: 0px; text-transform: none; widows: 2; word-spacing: 0px; -webkit-text-stroke-width: 0px; white-space: normal; background-color: rgb(251, 251, 251); text-decoration-thickness: initial; text-decoration-style: initial; text-decoration-color: initial;&quot;&gt;&lt;font style=&quot;font-size: 10px;&quot;&gt;1.&lt;span data-spm-anchor-id=&quot;5176.28103460.0.i54.49e35d27ruuq2W&quot; style=&quot;forced-color-adjust: none; box-sizing: border-box; color: rgb(44, 44, 54); font-family: -apple-system, BlinkMacSystemFont, &amp;quot;Segoe UI&amp;quot;, &amp;quot;Noto Sans&amp;quot;, Helvetica, Arial, sans-serif, &amp;quot;Apple Color Emoji&amp;quot;, &amp;quot;Segoe UI Emoji&amp;quot;; letter-spacing: 0.08px; background-color: rgb(255, 255, 255);&quot;&gt;确保双方都准备好进行通信&lt;br style=&quot;forced-color-adjust: none;&quot;&gt;2.&lt;/span&gt;&lt;span data-spm-anchor-id=&quot;5176.28103460.0.i56.49e35d27ruuq2W&quot; style=&quot;forced-color-adjust: none; box-sizing: border-box; color: rgb(44, 44, 54); font-family: -apple-system, BlinkMacSystemFont, &amp;quot;Segoe UI&amp;quot;, &amp;quot;Noto Sans&amp;quot;, Helvetica, Arial, sans-serif, &amp;quot;Apple Color Emoji&amp;quot;, &amp;quot;Segoe UI Emoji&amp;quot;; letter-spacing: 0.08px; background-color: rgb(255, 255, 255);&quot;&gt;同步序列号，保证数据完整性&lt;br style=&quot;forced-color-adjust: none;&quot;&gt;3.&lt;/span&gt;&lt;span data-spm-anchor-id=&quot;5176.28103460.0.i58.49e35d27ruuq2W&quot; style=&quot;forced-color-adjust: none; box-sizing: border-box; color: rgb(44, 44, 54); font-family: -apple-system, BlinkMacSystemFont, &amp;quot;Segoe UI&amp;quot;, &amp;quot;Noto Sans&amp;quot;, Helvetica, Arial, sans-serif, &amp;quot;Apple Color Emoji&amp;quot;, &amp;quot;Segoe UI Emoji&amp;quot;; letter-spacing: 0.08px; background-color: rgb(255, 255, 255);&quot;&gt;防止旧连接的干扰&lt;/span&gt;&lt;/font&gt;&lt;/span&gt;" style="text;whiteSpace=wrap;html=1;" vertex="1" parent="FOZXGGqBNjXn9Vt_34OC-48">
          <mxGeometry x="60" y="200" width="200" height="70" as="geometry" />
        </mxCell>
        <mxCell id="FOZXGGqBNjXn9Vt_34OC-49" value="" style="group" vertex="1" connectable="0" parent="1">
          <mxGeometry x="80" y="100" width="760" height="330" as="geometry" />
        </mxCell>
        <mxCell id="FOZXGGqBNjXn9Vt_34OC-4" value="" style="edgeStyle=orthogonalEdgeStyle;rounded=0;orthogonalLoop=1;jettySize=auto;html=1;" edge="1" parent="FOZXGGqBNjXn9Vt_34OC-49" source="FOZXGGqBNjXn9Vt_34OC-2" target="FOZXGGqBNjXn9Vt_34OC-3">
          <mxGeometry relative="1" as="geometry" />
        </mxCell>
        <mxCell id="FOZXGGqBNjXn9Vt_34OC-2" value="地址栏输入域名回车&lt;div&gt;&amp;amp;&lt;br&gt;点击导航跳转&lt;/div&gt;" style="rounded=1;whiteSpace=wrap;html=1;" vertex="1" parent="FOZXGGqBNjXn9Vt_34OC-49">
          <mxGeometry y="90" width="120" height="60" as="geometry" />
        </mxCell>
        <mxCell id="FOZXGGqBNjXn9Vt_34OC-6" value="" style="edgeStyle=orthogonalEdgeStyle;rounded=0;orthogonalLoop=1;jettySize=auto;html=1;strokeColor=#FF5959;" edge="1" parent="FOZXGGqBNjXn9Vt_34OC-49" source="FOZXGGqBNjXn9Vt_34OC-3" target="FOZXGGqBNjXn9Vt_34OC-5">
          <mxGeometry relative="1" as="geometry" />
        </mxCell>
        <mxCell id="FOZXGGqBNjXn9Vt_34OC-8" value="" style="edgeStyle=orthogonalEdgeStyle;rounded=0;orthogonalLoop=1;jettySize=auto;html=1;" edge="1" parent="FOZXGGqBNjXn9Vt_34OC-49" source="FOZXGGqBNjXn9Vt_34OC-3" target="FOZXGGqBNjXn9Vt_34OC-7">
          <mxGeometry relative="1" as="geometry" />
        </mxCell>
        <mxCell id="FOZXGGqBNjXn9Vt_34OC-3" value="&lt;h3 style=&quot;box-sizing: border-box; line-height: 1.7777; margin: 0.571429em 0px; font-size: 1em; color: rgb(44, 44, 54); font-family: -apple-system, BlinkMacSystemFont, &amp;quot;Segoe UI&amp;quot;, &amp;quot;Noto Sans&amp;quot;, Helvetica, Arial, sans-serif, &amp;quot;Apple Color Emoji&amp;quot;, &amp;quot;Segoe UI Emoji&amp;quot;; letter-spacing: 0.08px; text-align: start; background-color: rgb(255, 255, 255);&quot; data-spm-anchor-id=&quot;5176.28103460.0.i37.49e35d27ruuq2W&quot;&gt;DNS 解析&lt;/h3&gt;" style="rounded=1;whiteSpace=wrap;html=1;" vertex="1" parent="FOZXGGqBNjXn9Vt_34OC-49">
          <mxGeometry x="160" y="90" width="120" height="60" as="geometry" />
        </mxCell>
        <mxCell id="FOZXGGqBNjXn9Vt_34OC-5" value="&lt;h3 style=&quot;box-sizing: border-box; line-height: 1.7777; margin: 0.571429em 0px; font-size: 1em; color: rgb(44, 44, 54); font-family: -apple-system, BlinkMacSystemFont, &amp;quot;Segoe UI&amp;quot;, &amp;quot;Noto Sans&amp;quot;, Helvetica, Arial, sans-serif, &amp;quot;Apple Color Emoji&amp;quot;, &amp;quot;Segoe UI Emoji&amp;quot;; letter-spacing: 0.08px; text-align: start; background-color: rgb(255, 255, 255);&quot; data-spm-anchor-id=&quot;5176.28103460.0.i37.49e35d27ruuq2W&quot;&gt;从DNS缓存/域名服务器获取ip地址&lt;/h3&gt;" style="rounded=1;whiteSpace=wrap;html=1;dashed=1;" vertex="1" parent="FOZXGGqBNjXn9Vt_34OC-49">
          <mxGeometry x="160" width="120" height="60" as="geometry" />
        </mxCell>
        <mxCell id="FOZXGGqBNjXn9Vt_34OC-10" value="" style="edgeStyle=orthogonalEdgeStyle;rounded=0;orthogonalLoop=1;jettySize=auto;html=1;strokeColor=#FF5959;" edge="1" parent="FOZXGGqBNjXn9Vt_34OC-49" source="FOZXGGqBNjXn9Vt_34OC-7" target="FOZXGGqBNjXn9Vt_34OC-9">
          <mxGeometry relative="1" as="geometry" />
        </mxCell>
        <mxCell id="FOZXGGqBNjXn9Vt_34OC-13" value="" style="edgeStyle=orthogonalEdgeStyle;rounded=0;orthogonalLoop=1;jettySize=auto;html=1;dashed=1;" edge="1" parent="FOZXGGqBNjXn9Vt_34OC-49" source="FOZXGGqBNjXn9Vt_34OC-7" target="FOZXGGqBNjXn9Vt_34OC-11">
          <mxGeometry relative="1" as="geometry" />
        </mxCell>
        <mxCell id="FOZXGGqBNjXn9Vt_34OC-19" style="edgeStyle=orthogonalEdgeStyle;rounded=0;orthogonalLoop=1;jettySize=auto;html=1;entryX=0;entryY=0.5;entryDx=0;entryDy=0;" edge="1" parent="FOZXGGqBNjXn9Vt_34OC-49" source="FOZXGGqBNjXn9Vt_34OC-7" target="FOZXGGqBNjXn9Vt_34OC-17">
          <mxGeometry relative="1" as="geometry">
            <Array as="points">
              <mxPoint x="380" y="210" />
            </Array>
          </mxGeometry>
        </mxCell>
        <mxCell id="FOZXGGqBNjXn9Vt_34OC-7" value="&lt;h3 style=&quot;box-sizing: border-box; line-height: 1.7777; margin: 0.571429em 0px; font-size: 1em; color: rgb(44, 44, 54); font-family: -apple-system, BlinkMacSystemFont, &amp;quot;Segoe UI&amp;quot;, &amp;quot;Noto Sans&amp;quot;, Helvetica, Arial, sans-serif, &amp;quot;Apple Color Emoji&amp;quot;, &amp;quot;Segoe UI Emoji&amp;quot;; letter-spacing: 0.08px; text-align: start; background-color: rgb(255, 255, 255);&quot; data-spm-anchor-id=&quot;5176.28103460.0.i37.49e35d27ruuq2W&quot;&gt;TCP连接&lt;/h3&gt;" style="rounded=1;whiteSpace=wrap;html=1;" vertex="1" parent="FOZXGGqBNjXn9Vt_34OC-49">
          <mxGeometry x="320" y="90" width="120" height="60" as="geometry" />
        </mxCell>
        <mxCell id="FOZXGGqBNjXn9Vt_34OC-9" value="&lt;h3 style=&quot;box-sizing: border-box; line-height: 1.7777; margin: 0.571429em 0px; font-size: 1em; color: rgb(44, 44, 54); font-family: -apple-system, BlinkMacSystemFont, &amp;quot;Segoe UI&amp;quot;, &amp;quot;Noto Sans&amp;quot;, Helvetica, Arial, sans-serif, &amp;quot;Apple Color Emoji&amp;quot;, &amp;quot;Segoe UI Emoji&amp;quot;; letter-spacing: 0.08px; text-align: start; background-color: rgb(255, 255, 255);&quot; data-spm-anchor-id=&quot;5176.28103460.0.i37.49e35d27ruuq2W&quot;&gt;三次握手&lt;/h3&gt;" style="rounded=1;whiteSpace=wrap;html=1;dashed=1;" vertex="1" parent="FOZXGGqBNjXn9Vt_34OC-49">
          <mxGeometry x="320" width="120" height="60" as="geometry" />
        </mxCell>
        <mxCell id="FOZXGGqBNjXn9Vt_34OC-15" value="" style="edgeStyle=orthogonalEdgeStyle;rounded=0;orthogonalLoop=1;jettySize=auto;html=1;strokeColor=#FF5959;" edge="1" parent="FOZXGGqBNjXn9Vt_34OC-49" source="FOZXGGqBNjXn9Vt_34OC-11" target="FOZXGGqBNjXn9Vt_34OC-14">
          <mxGeometry relative="1" as="geometry" />
        </mxCell>
        <mxCell id="FOZXGGqBNjXn9Vt_34OC-18" value="" style="edgeStyle=orthogonalEdgeStyle;rounded=0;orthogonalLoop=1;jettySize=auto;html=1;" edge="1" parent="FOZXGGqBNjXn9Vt_34OC-49" source="FOZXGGqBNjXn9Vt_34OC-11" target="FOZXGGqBNjXn9Vt_34OC-17">
          <mxGeometry relative="1" as="geometry" />
        </mxCell>
        <mxCell id="FOZXGGqBNjXn9Vt_34OC-11" value="&lt;h3 style=&quot;box-sizing: border-box; line-height: 1.7777; margin: 0.571429em 0px; font-size: 1em; color: rgb(44, 44, 54); font-family: -apple-system, BlinkMacSystemFont, &amp;quot;Segoe UI&amp;quot;, &amp;quot;Noto Sans&amp;quot;, Helvetica, Arial, sans-serif, &amp;quot;Apple Color Emoji&amp;quot;, &amp;quot;Segoe UI Emoji&amp;quot;; letter-spacing: 0.08px; text-align: start; background-color: rgb(255, 255, 255);&quot; data-spm-anchor-id=&quot;5176.28103460.0.i37.49e35d27ruuq2W&quot;&gt;SSL/TLS连接&lt;/h3&gt;" style="rounded=1;whiteSpace=wrap;html=1;" vertex="1" parent="FOZXGGqBNjXn9Vt_34OC-49">
          <mxGeometry x="480" y="90" width="120" height="60" as="geometry" />
        </mxCell>
        <mxCell id="FOZXGGqBNjXn9Vt_34OC-67" style="edgeStyle=orthogonalEdgeStyle;rounded=0;orthogonalLoop=1;jettySize=auto;html=1;" edge="1" parent="FOZXGGqBNjXn9Vt_34OC-49">
          <mxGeometry relative="1" as="geometry">
            <mxPoint x="749.9999999999998" y="-9.999999999999773" as="targetPoint" />
            <mxPoint x="530" y="30.05882352941171" as="sourcePoint" />
            <Array as="points">
              <mxPoint x="751" y="30" />
              <mxPoint x="751" y="-10" />
            </Array>
          </mxGeometry>
        </mxCell>
        <mxCell id="FOZXGGqBNjXn9Vt_34OC-14" value="&lt;h3 style=&quot;box-sizing: border-box; line-height: 1.7777; margin: 0.571429em 0px; font-size: 1em; color: rgb(44, 44, 54); font-family: -apple-system, BlinkMacSystemFont, &amp;quot;Segoe UI&amp;quot;, &amp;quot;Noto Sans&amp;quot;, Helvetica, Arial, sans-serif, &amp;quot;Apple Color Emoji&amp;quot;, &amp;quot;Segoe UI Emoji&amp;quot;; letter-spacing: 0.08px; text-align: start; background-color: rgb(255, 255, 255);&quot; data-spm-anchor-id=&quot;5176.28103460.0.i37.49e35d27ruuq2W&quot;&gt;https 加密连接&lt;/h3&gt;" style="rounded=1;whiteSpace=wrap;html=1;dashed=1;" vertex="1" parent="FOZXGGqBNjXn9Vt_34OC-49">
          <mxGeometry x="480" width="120" height="60" as="geometry" />
        </mxCell>
        <mxCell id="FOZXGGqBNjXn9Vt_34OC-16" value="https" style="text;html=1;align=center;verticalAlign=middle;whiteSpace=wrap;rounded=0;" vertex="1" parent="FOZXGGqBNjXn9Vt_34OC-49">
          <mxGeometry x="430" y="120" width="60" height="30" as="geometry" />
        </mxCell>
        <mxCell id="FOZXGGqBNjXn9Vt_34OC-22" value="" style="edgeStyle=orthogonalEdgeStyle;rounded=0;orthogonalLoop=1;jettySize=auto;html=1;" edge="1" parent="FOZXGGqBNjXn9Vt_34OC-49" source="FOZXGGqBNjXn9Vt_34OC-17" target="FOZXGGqBNjXn9Vt_34OC-21">
          <mxGeometry relative="1" as="geometry" />
        </mxCell>
        <mxCell id="FOZXGGqBNjXn9Vt_34OC-17" value="&lt;h3 style=&quot;box-sizing: border-box; line-height: 1.7777; margin: 0.571429em 0px; font-size: 1em; color: rgb(44, 44, 54); font-family: -apple-system, BlinkMacSystemFont, &amp;quot;Segoe UI&amp;quot;, &amp;quot;Noto Sans&amp;quot;, Helvetica, Arial, sans-serif, &amp;quot;Apple Color Emoji&amp;quot;, &amp;quot;Segoe UI Emoji&amp;quot;; letter-spacing: 0.08px; text-align: start; background-color: rgb(255, 255, 255);&quot; data-spm-anchor-id=&quot;5176.28103460.0.i37.49e35d27ruuq2W&quot;&gt;发送http请求&lt;/h3&gt;" style="rounded=1;whiteSpace=wrap;html=1;" vertex="1" parent="FOZXGGqBNjXn9Vt_34OC-49">
          <mxGeometry x="480" y="180" width="120" height="60" as="geometry" />
        </mxCell>
        <mxCell id="FOZXGGqBNjXn9Vt_34OC-20" value="http" style="text;html=1;align=center;verticalAlign=middle;whiteSpace=wrap;rounded=0;" vertex="1" parent="FOZXGGqBNjXn9Vt_34OC-49">
          <mxGeometry x="380" y="200" width="60" height="30" as="geometry" />
        </mxCell>
        <mxCell id="FOZXGGqBNjXn9Vt_34OC-24" value="" style="edgeStyle=orthogonalEdgeStyle;rounded=0;orthogonalLoop=1;jettySize=auto;html=1;strokeColor=#FF5959;" edge="1" parent="FOZXGGqBNjXn9Vt_34OC-49" source="FOZXGGqBNjXn9Vt_34OC-21" target="FOZXGGqBNjXn9Vt_34OC-23">
          <mxGeometry relative="1" as="geometry" />
        </mxCell>
        <mxCell id="FOZXGGqBNjXn9Vt_34OC-26" value="" style="edgeStyle=orthogonalEdgeStyle;rounded=0;orthogonalLoop=1;jettySize=auto;html=1;" edge="1" parent="FOZXGGqBNjXn9Vt_34OC-49" source="FOZXGGqBNjXn9Vt_34OC-21" target="FOZXGGqBNjXn9Vt_34OC-25">
          <mxGeometry relative="1" as="geometry" />
        </mxCell>
        <mxCell id="FOZXGGqBNjXn9Vt_34OC-21" value="&lt;h3 style=&quot;box-sizing: border-box; line-height: 1.7777; margin: 0.571429em 0px; font-size: 1em; color: rgb(44, 44, 54); font-family: -apple-system, BlinkMacSystemFont, &amp;quot;Segoe UI&amp;quot;, &amp;quot;Noto Sans&amp;quot;, Helvetica, Arial, sans-serif, &amp;quot;Apple Color Emoji&amp;quot;, &amp;quot;Segoe UI Emoji&amp;quot;; letter-spacing: 0.08px; text-align: start; background-color: rgb(255, 255, 255);&quot; data-spm-anchor-id=&quot;5176.28103460.0.i37.49e35d27ruuq2W&quot;&gt;服务端处理请求&lt;/h3&gt;" style="rounded=1;whiteSpace=wrap;html=1;" vertex="1" parent="FOZXGGqBNjXn9Vt_34OC-49">
          <mxGeometry x="480" y="270" width="120" height="60" as="geometry" />
        </mxCell>
        <mxCell id="FOZXGGqBNjXn9Vt_34OC-23" value="&lt;h3 style=&quot;box-sizing: border-box; line-height: 1.7777; margin: 0.571429em 0px; font-size: 1em; color: rgb(44, 44, 54); font-family: -apple-system, BlinkMacSystemFont, &amp;quot;Segoe UI&amp;quot;, &amp;quot;Noto Sans&amp;quot;, Helvetica, Arial, sans-serif, &amp;quot;Apple Color Emoji&amp;quot;, &amp;quot;Segoe UI Emoji&amp;quot;; letter-spacing: 0.08px; text-align: start; background-color: rgb(255, 255, 255);&quot; data-spm-anchor-id=&quot;5176.28103460.0.i37.49e35d27ruuq2W&quot;&gt;通过参数处理逻辑&lt;br&gt;响应数据返回&lt;/h3&gt;" style="rounded=1;whiteSpace=wrap;html=1;dashed=1;" vertex="1" parent="FOZXGGqBNjXn9Vt_34OC-49">
          <mxGeometry x="640" y="270" width="120" height="60" as="geometry" />
        </mxCell>
        <mxCell id="FOZXGGqBNjXn9Vt_34OC-28" value="" style="edgeStyle=orthogonalEdgeStyle;rounded=0;orthogonalLoop=1;jettySize=auto;html=1;" edge="1" parent="FOZXGGqBNjXn9Vt_34OC-49" source="FOZXGGqBNjXn9Vt_34OC-25" target="FOZXGGqBNjXn9Vt_34OC-27">
          <mxGeometry relative="1" as="geometry" />
        </mxCell>
        <mxCell id="FOZXGGqBNjXn9Vt_34OC-25" value="&lt;h3 style=&quot;box-sizing: border-box; line-height: 1.7777; margin: 0.571429em 0px; font-size: 1em; color: rgb(44, 44, 54); font-family: -apple-system, BlinkMacSystemFont, &amp;quot;Segoe UI&amp;quot;, &amp;quot;Noto Sans&amp;quot;, Helvetica, Arial, sans-serif, &amp;quot;Apple Color Emoji&amp;quot;, &amp;quot;Segoe UI Emoji&amp;quot;; letter-spacing: 0.08px; text-align: start; background-color: rgb(255, 255, 255);&quot; data-spm-anchor-id=&quot;5176.28103460.0.i37.49e35d27ruuq2W&quot;&gt;浏览器渲染页面&lt;/h3&gt;" style="rounded=1;whiteSpace=wrap;html=1;" vertex="1" parent="FOZXGGqBNjXn9Vt_34OC-49">
          <mxGeometry x="320" y="270" width="120" height="60" as="geometry" />
        </mxCell>
        <mxCell id="FOZXGGqBNjXn9Vt_34OC-30" value="" style="edgeStyle=orthogonalEdgeStyle;rounded=0;orthogonalLoop=1;jettySize=auto;html=1;" edge="1" parent="FOZXGGqBNjXn9Vt_34OC-49" source="FOZXGGqBNjXn9Vt_34OC-27" target="FOZXGGqBNjXn9Vt_34OC-29">
          <mxGeometry relative="1" as="geometry" />
        </mxCell>
        <mxCell id="FOZXGGqBNjXn9Vt_34OC-27" value="&lt;h3 style=&quot;box-sizing: border-box; line-height: 1.7777; margin: 0.571429em 0px; font-size: 1em; color: rgb(44, 44, 54); font-family: -apple-system, BlinkMacSystemFont, &amp;quot;Segoe UI&amp;quot;, &amp;quot;Noto Sans&amp;quot;, Helvetica, Arial, sans-serif, &amp;quot;Apple Color Emoji&amp;quot;, &amp;quot;Segoe UI Emoji&amp;quot;; letter-spacing: 0.08px; text-align: start; background-color: rgb(255, 255, 255);&quot; data-spm-anchor-id=&quot;5176.28103460.0.i37.49e35d27ruuq2W&quot;&gt;加载外部资源&lt;/h3&gt;" style="rounded=1;whiteSpace=wrap;html=1;" vertex="1" parent="FOZXGGqBNjXn9Vt_34OC-49">
          <mxGeometry x="160" y="270" width="120" height="60" as="geometry" />
        </mxCell>
        <mxCell id="FOZXGGqBNjXn9Vt_34OC-32" value="" style="edgeStyle=orthogonalEdgeStyle;rounded=0;orthogonalLoop=1;jettySize=auto;html=1;" edge="1" parent="FOZXGGqBNjXn9Vt_34OC-49" source="FOZXGGqBNjXn9Vt_34OC-29" target="FOZXGGqBNjXn9Vt_34OC-31">
          <mxGeometry relative="1" as="geometry" />
        </mxCell>
        <mxCell id="FOZXGGqBNjXn9Vt_34OC-100" style="edgeStyle=orthogonalEdgeStyle;rounded=0;orthogonalLoop=1;jettySize=auto;html=1;" edge="1" parent="FOZXGGqBNjXn9Vt_34OC-49" source="FOZXGGqBNjXn9Vt_34OC-29">
          <mxGeometry relative="1" as="geometry">
            <mxPoint x="60" y="440" as="targetPoint" />
          </mxGeometry>
        </mxCell>
        <mxCell id="FOZXGGqBNjXn9Vt_34OC-29" value="&lt;h3 style=&quot;box-sizing: border-box; line-height: 1.7777; margin: 0.571429em 0px; font-size: 1em; color: rgb(44, 44, 54); font-family: -apple-system, BlinkMacSystemFont, &amp;quot;Segoe UI&amp;quot;, &amp;quot;Noto Sans&amp;quot;, Helvetica, Arial, sans-serif, &amp;quot;Apple Color Emoji&amp;quot;, &amp;quot;Segoe UI Emoji&amp;quot;; letter-spacing: 0.08px; text-align: start; background-color: rgb(255, 255, 255);&quot; data-spm-anchor-id=&quot;5176.28103460.0.i37.49e35d27ruuq2W&quot;&gt;事件循环交互&lt;/h3&gt;" style="rounded=1;whiteSpace=wrap;html=1;" vertex="1" parent="FOZXGGqBNjXn9Vt_34OC-49">
          <mxGeometry y="270" width="120" height="60" as="geometry" />
        </mxCell>
        <mxCell id="FOZXGGqBNjXn9Vt_34OC-31" value="&lt;h3 style=&quot;box-sizing: border-box; line-height: 1.7777; margin: 0.571429em 0px; font-size: 1em; color: rgb(44, 44, 54); font-family: -apple-system, BlinkMacSystemFont, &amp;quot;Segoe UI&amp;quot;, &amp;quot;Noto Sans&amp;quot;, Helvetica, Arial, sans-serif, &amp;quot;Apple Color Emoji&amp;quot;, &amp;quot;Segoe UI Emoji&amp;quot;; letter-spacing: 0.08px; text-align: start; background-color: rgb(255, 255, 255);&quot; data-spm-anchor-id=&quot;5176.28103460.0.i37.49e35d27ruuq2W&quot;&gt;完成加载&lt;/h3&gt;" style="rounded=1;whiteSpace=wrap;html=1;" vertex="1" parent="FOZXGGqBNjXn9Vt_34OC-49">
          <mxGeometry y="180" width="120" height="60" as="geometry" />
        </mxCell>
        <mxCell id="FOZXGGqBNjXn9Vt_34OC-51" style="edgeStyle=orthogonalEdgeStyle;rounded=0;orthogonalLoop=1;jettySize=auto;html=1;entryX=0.5;entryY=1;entryDx=0;entryDy=0;" edge="1" parent="1" source="FOZXGGqBNjXn9Vt_34OC-9" target="FOZXGGqBNjXn9Vt_34OC-47">
          <mxGeometry relative="1" as="geometry" />
        </mxCell>
        <mxCell id="FOZXGGqBNjXn9Vt_34OC-66" value="" style="group" vertex="1" connectable="0" parent="1">
          <mxGeometry x="640" y="-270" width="360" height="323" as="geometry" />
        </mxCell>
        <mxCell id="FOZXGGqBNjXn9Vt_34OC-55" style="edgeStyle=orthogonalEdgeStyle;rounded=0;orthogonalLoop=1;jettySize=auto;html=1;exitX=1;exitY=0.25;exitDx=0;exitDy=0;entryX=0;entryY=0.25;entryDx=0;entryDy=0;" edge="1" parent="FOZXGGqBNjXn9Vt_34OC-66" source="FOZXGGqBNjXn9Vt_34OC-53" target="FOZXGGqBNjXn9Vt_34OC-54">
          <mxGeometry relative="1" as="geometry" />
        </mxCell>
        <mxCell id="FOZXGGqBNjXn9Vt_34OC-61" style="edgeStyle=orthogonalEdgeStyle;rounded=0;orthogonalLoop=1;jettySize=auto;html=1;exitX=1;exitY=0.75;exitDx=0;exitDy=0;entryX=0;entryY=0.75;entryDx=0;entryDy=0;" edge="1" parent="FOZXGGqBNjXn9Vt_34OC-66" source="FOZXGGqBNjXn9Vt_34OC-53" target="FOZXGGqBNjXn9Vt_34OC-54">
          <mxGeometry relative="1" as="geometry" />
        </mxCell>
        <mxCell id="FOZXGGqBNjXn9Vt_34OC-53" value="客户端" style="rounded=1;whiteSpace=wrap;html=1;" vertex="1" parent="FOZXGGqBNjXn9Vt_34OC-66">
          <mxGeometry y="50" width="80" height="270" as="geometry" />
        </mxCell>
        <mxCell id="FOZXGGqBNjXn9Vt_34OC-59" style="edgeStyle=orthogonalEdgeStyle;rounded=0;orthogonalLoop=1;jettySize=auto;html=1;" edge="1" parent="FOZXGGqBNjXn9Vt_34OC-66" source="FOZXGGqBNjXn9Vt_34OC-54" target="FOZXGGqBNjXn9Vt_34OC-53">
          <mxGeometry relative="1" as="geometry" />
        </mxCell>
        <mxCell id="FOZXGGqBNjXn9Vt_34OC-63" style="edgeStyle=orthogonalEdgeStyle;rounded=0;orthogonalLoop=1;jettySize=auto;html=1;exitX=0;exitY=1;exitDx=0;exitDy=0;entryX=1;entryY=1;entryDx=0;entryDy=0;" edge="1" parent="FOZXGGqBNjXn9Vt_34OC-66" source="FOZXGGqBNjXn9Vt_34OC-54" target="FOZXGGqBNjXn9Vt_34OC-53">
          <mxGeometry relative="1" as="geometry">
            <Array as="points">
              <mxPoint x="180" y="320" />
              <mxPoint x="180" y="320" />
            </Array>
          </mxGeometry>
        </mxCell>
        <mxCell id="FOZXGGqBNjXn9Vt_34OC-54" value="服务端" style="rounded=1;whiteSpace=wrap;html=1;" vertex="1" parent="FOZXGGqBNjXn9Vt_34OC-66">
          <mxGeometry x="280" y="50" width="80" height="270" as="geometry" />
        </mxCell>
        <mxCell id="FOZXGGqBNjXn9Vt_34OC-58" value="&lt;br&gt;&lt;span style=&quot;color: rgb(0, 0, 0); font-family: Helvetica; font-size: 8px; font-style: normal; font-variant-ligatures: normal; font-variant-caps: normal; font-weight: 400; letter-spacing: normal; orphans: 2; text-align: center; text-indent: 0px; text-transform: none; widows: 2; word-spacing: 0px; -webkit-text-stroke-width: 0px; white-space: nowrap; background-color: rgb(251, 251, 251); text-decoration-thickness: initial; text-decoration-style: initial; text-decoration-color: initial; display: inline !important; float: none;&quot;&gt;ClientMsg消息：&lt;/span&gt;&lt;span style=&quot;forced-color-adjust: none; font-size: 8px; font-style: normal; font-variant-ligatures: normal; font-variant-caps: normal; font-weight: 400; orphans: 2; text-indent: 0px; text-transform: none; widows: 2; word-spacing: 0px; -webkit-text-stroke-width: 0px; white-space: normal; text-decoration-thickness: initial; text-decoration-style: initial; text-decoration-color: initial; color: rgb(44, 44, 54); font-family: -apple-system, BlinkMacSystemFont, &amp;quot;Segoe UI&amp;quot;, &amp;quot;Noto Sans&amp;quot;, Helvetica, Arial, sans-serif, &amp;quot;Apple Color Emoji&amp;quot;, &amp;quot;Segoe UI Emoji&amp;quot;; letter-spacing: 0.08px; text-align: left; background-color: rgb(255, 255, 255);&quot;&gt;TLS版本、随机数、加密算法&lt;/span&gt;&lt;div&gt;&lt;br/&gt;&lt;/div&gt;" style="text;html=1;align=center;verticalAlign=middle;whiteSpace=wrap;rounded=0;" vertex="1" parent="FOZXGGqBNjXn9Vt_34OC-66">
          <mxGeometry x="30" y="90" width="288" height="30" as="geometry" />
        </mxCell>
        <mxCell id="FOZXGGqBNjXn9Vt_34OC-60" value="ServerMsg消息、证书、秘钥交换" style="text;html=1;align=center;verticalAlign=middle;whiteSpace=wrap;rounded=0;fontSize=8;" vertex="1" parent="FOZXGGqBNjXn9Vt_34OC-66">
          <mxGeometry x="13" y="160" width="305" height="30" as="geometry" />
        </mxCell>
        <mxCell id="FOZXGGqBNjXn9Vt_34OC-62" value="发送证书、秘钥交换、ChangeCipherSpec加密信息" style="text;html=1;align=center;verticalAlign=middle;whiteSpace=wrap;rounded=0;fontSize=8;" vertex="1" parent="FOZXGGqBNjXn9Vt_34OC-66">
          <mxGeometry x="30" y="228" width="305" height="30" as="geometry" />
        </mxCell>
        <mxCell id="FOZXGGqBNjXn9Vt_34OC-64" value="发送ChangeCipherSpec加密信息" style="text;html=1;align=center;verticalAlign=middle;whiteSpace=wrap;rounded=0;fontSize=8;" vertex="1" parent="FOZXGGqBNjXn9Vt_34OC-66">
          <mxGeometry x="30" y="293" width="305" height="30" as="geometry" />
        </mxCell>
        <mxCell id="FOZXGGqBNjXn9Vt_34OC-65" value="TLS/SSR的作用&lt;div&gt;1.数据加密&lt;br&gt;2.身份验证&lt;br&gt;3.完整性保护&lt;/div&gt;" style="text;html=1;align=left;verticalAlign=middle;resizable=0;points=[];autosize=1;strokeColor=none;fillColor=none;" vertex="1" parent="FOZXGGqBNjXn9Vt_34OC-66">
          <mxGeometry x="127.5" width="110" height="70" as="geometry" />
        </mxCell>
        <mxCell id="FOZXGGqBNjXn9Vt_34OC-99" value="" style="group" vertex="1" connectable="0" parent="1">
          <mxGeometry x="70" y="500" width="930" height="392" as="geometry" />
        </mxCell>
        <mxCell id="FOZXGGqBNjXn9Vt_34OC-76" value="" style="edgeStyle=orthogonalEdgeStyle;rounded=0;orthogonalLoop=1;jettySize=auto;html=1;" edge="1" parent="FOZXGGqBNjXn9Vt_34OC-99" source="FOZXGGqBNjXn9Vt_34OC-68" target="FOZXGGqBNjXn9Vt_34OC-75">
          <mxGeometry relative="1" as="geometry" />
        </mxCell>
        <mxCell id="FOZXGGqBNjXn9Vt_34OC-68" value="浏览器进程" style="rounded=1;whiteSpace=wrap;html=1;" vertex="1" parent="FOZXGGqBNjXn9Vt_34OC-99">
          <mxGeometry y="50" width="120" height="60" as="geometry" />
        </mxCell>
        <mxCell id="FOZXGGqBNjXn9Vt_34OC-79" value="" style="edgeStyle=orthogonalEdgeStyle;rounded=0;orthogonalLoop=1;jettySize=auto;html=1;" edge="1" parent="FOZXGGqBNjXn9Vt_34OC-99" source="FOZXGGqBNjXn9Vt_34OC-71" target="FOZXGGqBNjXn9Vt_34OC-78">
          <mxGeometry relative="1" as="geometry" />
        </mxCell>
        <mxCell id="FOZXGGqBNjXn9Vt_34OC-84" value="" style="edgeStyle=orthogonalEdgeStyle;rounded=0;orthogonalLoop=1;jettySize=auto;html=1;" edge="1" parent="FOZXGGqBNjXn9Vt_34OC-99" source="FOZXGGqBNjXn9Vt_34OC-71" target="FOZXGGqBNjXn9Vt_34OC-83">
          <mxGeometry relative="1" as="geometry" />
        </mxCell>
        <mxCell id="FOZXGGqBNjXn9Vt_34OC-71" value="渲染进程，加载html/js/css" style="rounded=1;whiteSpace=wrap;html=1;" vertex="1" parent="FOZXGGqBNjXn9Vt_34OC-99">
          <mxGeometry x="177" y="130" width="313" height="40" as="geometry" />
        </mxCell>
        <mxCell id="FOZXGGqBNjXn9Vt_34OC-72" value="" style="strokeWidth=2;html=1;shape=mxgraph.flowchart.annotation_2;align=left;labelPosition=right;pointerEvents=1;" vertex="1" parent="FOZXGGqBNjXn9Vt_34OC-99">
          <mxGeometry x="127" y="20" width="50" height="130" as="geometry" />
        </mxCell>
        <mxCell id="FOZXGGqBNjXn9Vt_34OC-73" value="网络进程，加载网络资源" style="rounded=1;whiteSpace=wrap;html=1;" vertex="1" parent="FOZXGGqBNjXn9Vt_34OC-99">
          <mxGeometry x="177" y="65" width="313" height="40" as="geometry" />
        </mxCell>
        <mxCell id="FOZXGGqBNjXn9Vt_34OC-74" value="浏览器进程，页面显示与交互，子线程管理" style="rounded=1;whiteSpace=wrap;html=1;" vertex="1" parent="FOZXGGqBNjXn9Vt_34OC-99">
          <mxGeometry x="177" width="313" height="40" as="geometry" />
        </mxCell>
        <mxCell id="FOZXGGqBNjXn9Vt_34OC-75" value="1个进程至少1个线程" style="rounded=1;whiteSpace=wrap;html=1;dashed=1;" vertex="1" parent="FOZXGGqBNjXn9Vt_34OC-99">
          <mxGeometry y="140" width="120" height="60" as="geometry" />
        </mxCell>
        <mxCell id="FOZXGGqBNjXn9Vt_34OC-98" value="" style="edgeStyle=orthogonalEdgeStyle;rounded=0;orthogonalLoop=1;jettySize=auto;html=1;" edge="1" parent="FOZXGGqBNjXn9Vt_34OC-99" source="FOZXGGqBNjXn9Vt_34OC-78" target="FOZXGGqBNjXn9Vt_34OC-97">
          <mxGeometry relative="1" as="geometry" />
        </mxCell>
        <mxCell id="FOZXGGqBNjXn9Vt_34OC-78" value="消息队列/事件循环" style="whiteSpace=wrap;html=1;rounded=1;" vertex="1" parent="FOZXGGqBNjXn9Vt_34OC-99">
          <mxGeometry x="273.5" y="270" width="120" height="40" as="geometry" />
        </mxCell>
        <mxCell id="FOZXGGqBNjXn9Vt_34OC-80" value="为解决同一时间事件冲突" style="text;html=1;align=center;verticalAlign=middle;resizable=0;points=[];autosize=1;strokeColor=none;fillColor=none;fontSize=10;" vertex="1" parent="FOZXGGqBNjXn9Vt_34OC-99">
          <mxGeometry x="273.5" y="180" width="130" height="30" as="geometry" />
        </mxCell>
        <mxCell id="FOZXGGqBNjXn9Vt_34OC-92" value="" style="edgeStyle=orthogonalEdgeStyle;rounded=0;orthogonalLoop=1;jettySize=auto;html=1;" edge="1" parent="FOZXGGqBNjXn9Vt_34OC-99" source="FOZXGGqBNjXn9Vt_34OC-81" target="FOZXGGqBNjXn9Vt_34OC-91">
          <mxGeometry relative="1" as="geometry" />
        </mxCell>
        <mxCell id="FOZXGGqBNjXn9Vt_34OC-81" value="微队列" style="whiteSpace=wrap;html=1;rounded=1;fontSize=12;" vertex="1" parent="FOZXGGqBNjXn9Vt_34OC-99">
          <mxGeometry x="443.5" y="210" width="76.5" height="30" as="geometry" />
        </mxCell>
        <mxCell id="FOZXGGqBNjXn9Vt_34OC-83" value="&lt;ul style=&quot;list-style: none; padding: 0px 0px 0px 1.2em; margin: 0px; line-height: 1.7; overflow-wrap: break-word; color: rgb(44, 62, 80); font-family: -apple-system, BlinkMacSystemFont, &amp;quot;Segoe UI&amp;quot;, Roboto, Oxygen, Ubuntu, Cantarell, &amp;quot;Fira Sans&amp;quot;, &amp;quot;Droid Sans&amp;quot;, &amp;quot;Helvetica Neue&amp;quot;, sans-serif; text-align: start; background-color: rgb(255, 255, 255);&quot;&gt;&lt;li style=&quot;list-style: none; padding: 0px; margin: 0px;&quot;&gt;&lt;p style=&quot;line-height: 1.7; overflow-wrap: break-word;&quot;&gt;&lt;font&gt;渲染主线程会每次从消息队列去一个任务去执行，执行完成之后，再拿下一个任务。直到任务处理完进入休眠状态。&lt;/font&gt;&lt;/p&gt;&lt;/li&gt;&lt;/ul&gt;" style="whiteSpace=wrap;html=1;rounded=1;" vertex="1" parent="FOZXGGqBNjXn9Vt_34OC-99">
          <mxGeometry x="520" y="120" width="410" height="60" as="geometry" />
        </mxCell>
        <mxCell id="FOZXGGqBNjXn9Vt_34OC-85" value="" style="strokeWidth=2;html=1;shape=mxgraph.flowchart.annotation_2;align=left;labelPosition=right;pointerEvents=1;" vertex="1" parent="FOZXGGqBNjXn9Vt_34OC-99">
          <mxGeometry x="393.5" y="225" width="50" height="130" as="geometry" />
        </mxCell>
        <mxCell id="FOZXGGqBNjXn9Vt_34OC-94" value="" style="edgeStyle=orthogonalEdgeStyle;rounded=0;orthogonalLoop=1;jettySize=auto;html=1;" edge="1" parent="FOZXGGqBNjXn9Vt_34OC-99" source="FOZXGGqBNjXn9Vt_34OC-86" target="FOZXGGqBNjXn9Vt_34OC-93">
          <mxGeometry relative="1" as="geometry" />
        </mxCell>
        <mxCell id="FOZXGGqBNjXn9Vt_34OC-86" value="&lt;div style=&quot;text-align: left;&quot;&gt;&lt;font face=&quot;-apple-system, BlinkMacSystemFont, Segoe UI, Roboto, Oxygen, Ubuntu, Cantarell, Fira Sans, Droid Sans, Helvetica Neue, sans-serif&quot; color=&quot;#2c3e50&quot;&gt;交互队列&lt;/font&gt;&lt;/div&gt;" style="whiteSpace=wrap;html=1;rounded=1;" vertex="1" parent="FOZXGGqBNjXn9Vt_34OC-99">
          <mxGeometry x="443.5" y="275" width="76.5" height="30" as="geometry" />
        </mxCell>
        <mxCell id="FOZXGGqBNjXn9Vt_34OC-96" value="" style="edgeStyle=orthogonalEdgeStyle;rounded=0;orthogonalLoop=1;jettySize=auto;html=1;" edge="1" parent="FOZXGGqBNjXn9Vt_34OC-99" source="FOZXGGqBNjXn9Vt_34OC-87" target="FOZXGGqBNjXn9Vt_34OC-95">
          <mxGeometry relative="1" as="geometry" />
        </mxCell>
        <mxCell id="FOZXGGqBNjXn9Vt_34OC-87" value="&lt;div style=&quot;text-align: left;&quot;&gt;&lt;font face=&quot;-apple-system, BlinkMacSystemFont, Segoe UI, Roboto, Oxygen, Ubuntu, Cantarell, Fira Sans, Droid Sans, Helvetica Neue, sans-serif&quot; color=&quot;#2c3e50&quot;&gt;延时队列&lt;/font&gt;&lt;/div&gt;" style="whiteSpace=wrap;html=1;rounded=1;" vertex="1" parent="FOZXGGqBNjXn9Vt_34OC-99">
          <mxGeometry x="443.5" y="340" width="76.5" height="30" as="geometry" />
        </mxCell>
        <mxCell id="FOZXGGqBNjXn9Vt_34OC-88" value="优先级最高" style="text;html=1;align=center;verticalAlign=middle;resizable=0;points=[];autosize=1;strokeColor=none;fillColor=none;fontSize=10;" vertex="1" parent="FOZXGGqBNjXn9Vt_34OC-99">
          <mxGeometry x="446.75" y="234" width="70" height="30" as="geometry" />
        </mxCell>
        <mxCell id="FOZXGGqBNjXn9Vt_34OC-89" value="优先级高" style="text;html=1;align=center;verticalAlign=middle;resizable=0;points=[];autosize=1;strokeColor=none;fillColor=none;fontSize=10;" vertex="1" parent="FOZXGGqBNjXn9Vt_34OC-99">
          <mxGeometry x="451.75" y="299" width="60" height="30" as="geometry" />
        </mxCell>
        <mxCell id="FOZXGGqBNjXn9Vt_34OC-90" value="优先级中" style="text;html=1;align=center;verticalAlign=middle;resizable=0;points=[];autosize=1;strokeColor=none;fillColor=none;fontSize=10;" vertex="1" parent="FOZXGGqBNjXn9Vt_34OC-99">
          <mxGeometry x="451.75" y="362" width="60" height="30" as="geometry" />
        </mxCell>
        <mxCell id="FOZXGGqBNjXn9Vt_34OC-91" value="&lt;span style=&quot;color: rgb(44, 62, 80); font-family: -apple-system, BlinkMacSystemFont, &amp;quot;Segoe UI&amp;quot;, Roboto, Oxygen, Ubuntu, Cantarell, &amp;quot;Fira Sans&amp;quot;, &amp;quot;Droid Sans&amp;quot;, &amp;quot;Helvetica Neue&amp;quot;, sans-serif; text-align: left; background-color: rgb(255, 255, 255);&quot;&gt;&lt;font&gt;Promise.then ，MutationObserver&lt;/font&gt;&lt;/span&gt;" style="whiteSpace=wrap;html=1;rounded=1;fontSize=10;" vertex="1" parent="FOZXGGqBNjXn9Vt_34OC-99">
          <mxGeometry x="560" y="210" width="200" height="30" as="geometry" />
        </mxCell>
        <mxCell id="FOZXGGqBNjXn9Vt_34OC-93" value="&lt;span style=&quot;color: rgb(44, 62, 80); font-family: -apple-system, BlinkMacSystemFont, &amp;quot;Segoe UI&amp;quot;, Roboto, Oxygen, Ubuntu, Cantarell, &amp;quot;Fira Sans&amp;quot;, &amp;quot;Droid Sans&amp;quot;, &amp;quot;Helvetica Neue&amp;quot;, sans-serif; text-align: left; background-color: rgb(255, 255, 255);&quot;&gt;&lt;font&gt;用户操作产生的事件任务&lt;/font&gt;&lt;/span&gt;" style="whiteSpace=wrap;html=1;rounded=1;fontSize=10;" vertex="1" parent="FOZXGGqBNjXn9Vt_34OC-99">
          <mxGeometry x="560" y="275" width="200" height="30" as="geometry" />
        </mxCell>
        <mxCell id="FOZXGGqBNjXn9Vt_34OC-95" value="&lt;span style=&quot;color: rgb(44, 62, 80); font-family: -apple-system, BlinkMacSystemFont, &amp;quot;Segoe UI&amp;quot;, Roboto, Oxygen, Ubuntu, Cantarell, &amp;quot;Fira Sans&amp;quot;, &amp;quot;Droid Sans&amp;quot;, &amp;quot;Helvetica Neue&amp;quot;, sans-serif; text-align: left; background-color: rgb(255, 255, 255);&quot;&gt;&lt;font&gt;计时器回调任务&lt;/font&gt;&lt;/span&gt;" style="whiteSpace=wrap;html=1;rounded=1;fontSize=10;" vertex="1" parent="FOZXGGqBNjXn9Vt_34OC-99">
          <mxGeometry x="560" y="340" width="200" height="30" as="geometry" />
        </mxCell>
        <mxCell id="FOZXGGqBNjXn9Vt_34OC-97" value="早期分为宏任务、微任务" style="whiteSpace=wrap;html=1;rounded=1;dashed=1;fontSize=10;" vertex="1" parent="FOZXGGqBNjXn9Vt_34OC-99">
          <mxGeometry x="273.5" y="340" width="120" height="40" as="geometry" />
        </mxCell>
      </root>
    </mxGraphModel>
  </diagram>
</mxfile>
